<svg xmlns="http://www.w3.org/2000/svg" viewBox="0 0 1200 400" data-template-version="v1" data-aircraft-family="747" data-projection="top" aria-labelledby="title desc">
  <title id="title">747 top-down livery template</title>
  <desc id="desc">Neutral four-engine widebody planform divided into Tailfin livery zones.</desc>
  <g id="zone-wings" data-livery-zone="wings" data-zone-viewbox="205 0 755 400" fill="#CAD4DE" stroke="#34495E" stroke-width="2"><path d="m385 164-180-122 48-42 440 164L960 34v58L747 200l213 108v58L693 236 253 400l-48-42 180-122Z" /></g>
  <g id="zone-engine_nacelles" data-livery-zone="engine_nacelles" data-zone-viewbox="430 12 345 376" fill="#B8C4CF" stroke="#34495E" stroke-width="2"><rect x="430" y="12" width="88" height="148" rx="42" /><rect x="550" y="40" width="100" height="128" rx="48" /><rect x="430" y="240" width="88" height="148" rx="42" /><rect x="550" y="232" width="100" height="128" rx="48" /></g>
  <g id="zone-fuselage" data-livery-zone="fuselage" data-zone-viewbox="132 136 945 128" fill="#E7ECF2" stroke="#34495E" stroke-width="2"><path d="M132 154q205-18 730-18 158 0 215 64-57 64-215 64H132Z" /></g>
  <g id="zone-nose" data-livery-zone="nose" data-zone-viewbox="4 140 202 120" fill="#F4F6F8" stroke="#34495E" stroke-width="2"><path d="M4 200q60-60 202-60v120q-142 0-202-60Z" /></g>
  <g id="zone-belly" data-livery-zone="belly" data-zone-viewbox="206 178 795 44" opacity="0"><path d="M206 178h795v44H206Z" /></g>
  <g id="zone-tail_fin" data-livery-zone="tail_fin" data-zone-viewbox="892 106 193 188" fill="#DCE4EB" stroke="#34495E" stroke-width="2"><path d="m892 200 193-94v188Z" /></g>
  <g id="zone-winglets" data-livery-zone="winglets" data-zone-viewbox="195 0 78 400" fill="#DCE4EB" stroke="#34495E" stroke-width="2"><path d="m205 42 40-42 28 8-20 51Zm0 316 40 42 28-8-20-51Z" /></g>
  <g id="zone-cheatline_band" data-livery-zone="cheatline_band" data-zone-viewbox="108 146 925 108" fill="#000" fill-opacity="0"><path d="M108 146h925v108H108Z" /></g>
  <g id="zone-door_surrounds" data-livery-zone="door_surrounds" data-zone-viewbox="222 136 725 128" opacity="0"><path d="M222 136h48v128h-48Zm610 0h48v128h-48Zm675 0h48v128h-48Z" /></g>
  <g id="zone-registration_area" data-livery-zone="registration_area" data-zone-viewbox="765 146 220 108" fill="#000" fill-opacity="0"><path d="M765 146h220v108H765Z" /></g>
</svg>
