<svg xmlns="http://www.w3.org/2000/svg" viewBox="0 0 1200 400" data-template-version="v1" data-aircraft-family="A220" data-projection="top" aria-labelledby="title desc">
  <title id="title">A220 top-down livery template</title>
  <desc id="desc">Neutral low-wing small mainline jet planform divided into Tailfin livery zones.</desc>
  <g id="zone-wings" data-livery-zone="wings" data-zone-viewbox="390 20 430 360" fill="#CAD4DE" stroke="#34495E" stroke-width="2"><path d="m450 180-60-128 30-32 235 160 165-98v44l-132 74 132 74v44l-165-98-235 160-30-32 60-128Z" /></g>
  <g id="zone-engine_nacelles" data-livery-zone="engine_nacelles" data-zone-viewbox="505 72 170 256" fill="#B8C4CF" stroke="#34495E" stroke-width="2"><rect x="505" y="72" width="78" height="100" rx="36" /><rect x="505" y="228" width="78" height="100" rx="36" /></g>
  <g id="zone-fuselage" data-livery-zone="fuselage" data-zone-viewbox="200 162 815 76" fill="#E7ECF2" stroke="#34495E" stroke-width="2"><path d="M200 175q175-13 660-13 110 0 155 38-45 38-155 38H200Z" /></g>
  <g id="zone-nose" data-livery-zone="nose" data-zone-viewbox="80 164 172 72" fill="#F4F6F8" stroke="#34495E" stroke-width="2"><path d="M80 200q48-36 172-36v72q-124 0-172-36Z" /></g>
  <g id="zone-belly" data-livery-zone="belly" data-zone-viewbox="252 187 673 26" opacity="0"><path d="M252 187h673v26H252Z" /></g>
  <g id="zone-tail_fin" data-livery-zone="tail_fin" data-zone-viewbox="855 145 145 110" fill="#DCE4EB" stroke="#34495E" stroke-width="2"><path d="m855 200 145-55v110Z" /></g>
  <g id="zone-winglets" data-livery-zone="winglets" data-zone-viewbox="382 14 46 372" fill="#DCE4EB" stroke="#34495E" stroke-width="2"><path d="m390 52 24-38 14 10-8 40Zm0 296 24 38 14-10-8-40Z" /></g>
  <g id="zone-cheatline_band" data-livery-zone="cheatline_band" data-zone-viewbox="175 171 785 58" fill="#000" fill-opacity="0"><path d="M175 171h785v58H175Z" /></g>
  <g id="zone-door_surrounds" data-livery-zone="door_surrounds" data-zone-viewbox="265 162 605 76" opacity="0"><path d="M265 162h34v76h-34Zm571 0h34v76h-34Z" /></g>
  <g id="zone-registration_area" data-livery-zone="registration_area" data-zone-viewbox="700 171 170 58" fill="#000" fill-opacity="0"><path d="M700 171h170v58H700Z" /></g>
</svg>
